# xmcd
#
# Track frame offsets:
# 150
# 19276
# 32280
# 46084
# 60652
# 77211
# 88734
# 101300
# 118687
# 132764
# 149301
#
# Disc length: 2200 seconds
#
#
# Revision: 0
# Processed by: cddbd v1.5.2PL0 Copyright (c) Steve Scherf et al.
# Submitted via: FreeRIP 2.96 
#
DISCID=8608960b
DTITLE=Wes Loper - Keep On Growin'
DYEAR=1900
DGENRE=Country
TTITLE0=Shreveport to LA
TTITLE1=You've Always Got Me
TTITLE2=Love Changes Everything
TTITLE3=Do It Again
TTITLE4=Daily Bread
TTITLE5=Simple Life
TTITLE6=Same Boat Now
TTITLE7=Like The River
TTITLE8=We're Gettin' Out Of Here
TTITLE9=Keep On Growin'
TTITLE10=Grain Of Salt
EXTD=
EXTT0=
EXTT1=
EXTT2=
EXTT3=
EXTT4=
EXTT5=
EXTT6=
EXTT7=
EXTT8=
EXTT9=
EXTT10=
PLAYORDER=
